<svg width="194" height="35" viewBox="0 0 194 35" fill="none" xmlns="http://www.w3.org/2000/svg">
<mask id="mask0_923_1971" style="mask-type:luminance" maskUnits="userSpaceOnUse" x="23" y="0" width="31" height="9">
<path d="M27.3662 0.500008C25.322 0.500008 23.666 2.23581 23.666 4.37752C23.666 6.51855 25.322 8.25537 27.3662 8.25537H50.2815C52.3254 8.25537 53.9817 6.51855 53.9817 4.37752C53.9817 2.23581 52.3254 0.500008 50.2815 0.500008H27.3662Z" fill="white"/>
</mask>
<g mask="url(#mask0_923_1971)">
<mask id="mask1_923_1971" style="mask-type:luminance" maskUnits="userSpaceOnUse" x="-10636" y="-10928" width="21202" height="22206">
<path d="M-10635.5 -10927.2H10565.2V11277.7H-10635.5V-10927.2Z" fill="url(#paint0_linear_923_1971)"/>
</mask>
<g mask="url(#mask1_923_1971)">
<path d="M27.3662 0.497566C25.322 0.497566 23.666 2.23337 23.666 4.37508C23.666 6.51611 25.322 8.25293 27.3662 8.25293H50.2815C52.3254 8.25293 53.9817 6.51611 53.9817 4.37508C53.9817 2.23337 52.3254 0.497566 50.2815 0.497566H27.3662Z" fill="url(#paint1_linear_923_1971)"/>
</g>
</g>
<mask id="mask2_923_1971" style="mask-type:luminance" maskUnits="userSpaceOnUse" x="0" y="13" width="54" height="9">
<path d="M4.52378 13.7562C2.47925 13.7562 0.823242 15.4916 0.823242 17.6327C0.823242 19.7734 2.47925 21.5115 4.52378 21.5115H50.2822C52.3261 21.5115 53.9824 19.7734 53.9824 17.6327C53.9824 15.4916 52.3261 13.7562 50.2822 13.7562H4.52378Z" fill="white"/>
</mask>
<g mask="url(#mask2_923_1971)">
<mask id="mask3_923_1971" style="mask-type:luminance" maskUnits="userSpaceOnUse" x="-10636" y="-10928" width="21202" height="22206">
<path d="M-10635.5 -10927.2H10565.2V11277.7H-10635.5V-10927.2Z" fill="url(#paint2_linear_923_1971)"/>
</mask>
<g mask="url(#mask3_923_1971)">
<path d="M4.52281 13.7544C2.47827 13.7544 0.822266 15.4899 0.822266 17.6309C0.822266 19.7716 2.47827 21.5098 4.52281 21.5098H50.2812C52.3251 21.5098 53.9814 19.7716 53.9814 17.6309C53.9814 15.4899 52.3251 13.7544 50.2812 13.7544H4.52281Z" fill="url(#paint3_linear_923_1971)"/>
</g>
</g>
<mask id="mask4_923_1971" style="mask-type:luminance" maskUnits="userSpaceOnUse" x="18" y="27" width="36" height="8">
<path d="M21.8431 27.011C19.7989 27.011 18.1406 28.7485 18.1406 30.8892C18.1406 33.0306 19.7989 34.7654 21.8431 34.7654H50.2828C52.3267 34.7654 53.983 33.0306 53.983 30.8892C53.983 28.7485 52.3267 27.011 50.2828 27.011H21.8431Z" fill="white"/>
</mask>
<g mask="url(#mask4_923_1971)">
<mask id="mask5_923_1971" style="mask-type:luminance" maskUnits="userSpaceOnUse" x="-10636" y="-10928" width="21202" height="22206">
<path d="M-10635.5 -10927.2H10565.2V11277.7H-10635.5V-10927.2Z" fill="url(#paint4_linear_923_1971)"/>
</mask>
<g mask="url(#mask5_923_1971)">
<path d="M21.849 27.0113C19.8048 27.0113 18.1465 28.7488 18.1465 30.8895C18.1465 33.0308 19.8048 34.7656 21.849 34.7656H50.2887C52.3326 34.7656 53.9889 33.0308 53.9889 30.8895C53.9889 28.7488 52.3326 27.0113 50.2887 27.0113H21.849Z" fill="url(#paint5_linear_923_1971)"/>
</g>
</g>
<path d="M63.335 22.2357C63.335 22.9927 63.0866 23.5632 62.5942 23.9505C62.1015 24.3361 61.5234 24.5289 60.8615 24.5289C60.1828 24.5289 59.6008 24.3361 59.1146 23.9505C58.6303 23.5632 58.3887 22.9927 58.3887 22.2357V9.97976C58.3887 9.25569 58.6303 8.69528 59.1146 8.30055C59.6008 7.90683 60.1828 7.7093 60.8615 7.7093C61.5234 7.7093 62.1015 7.90683 62.5942 8.30055C63.0866 8.69528 63.335 9.25569 63.335 9.97976V13.9084L67.8977 8.78981C69.2195 7.20818 70.7507 7.92581 71.2003 8.35984C71.6519 8.79388 71.8768 9.34175 71.8768 10.0048C71.8768 10.2728 71.8341 10.5331 71.7483 10.7855C71.6649 11.0376 71.5196 11.2585 71.3161 11.4469L67.1598 15.8001L71.3417 20.7683C71.7315 21.2264 71.9282 21.7065 71.9282 22.2113C71.9282 22.9205 71.6888 23.4853 71.2133 23.9034C70.7377 24.3202 70.1166 24.5289 69.3522 24.5289C68.9775 24.5289 68.6265 24.4584 68.2943 24.3175C67.963 24.1745 67.6777 23.9465 67.4399 23.631L63.335 18.3077V22.2357Z" fill="white"/>
<path d="M80.1898 17.5987H82.586L81.4897 14.5937L80.1898 17.5987ZM83.937 21.2191H78.6331L77.8428 23.0399C77.6054 23.5448 77.2906 23.9188 76.9008 24.1624C76.5087 24.4084 76.1001 24.5287 75.676 24.5287C75.3357 24.5287 75.0073 24.4786 74.6929 24.3766C74.3804 24.2736 74.0954 24.1289 73.8405 23.9378C73.5859 23.7498 73.3801 23.5197 73.2281 23.2517C73.0741 22.9837 72.999 22.6858 72.999 22.3535C72.999 21.9431 73.0592 21.6362 73.1766 21.4312L79.2455 9.08068C79.4487 8.67138 79.712 8.34068 80.0358 8.08724C80.359 7.83584 80.8601 7.70946 81.5411 7.70946C82.1855 7.70946 82.6737 7.83584 83.0056 8.08724C83.3375 8.34068 83.5966 8.67951 83.783 9.10575L89.3161 21.4312C89.4339 21.6514 89.4963 21.9591 89.4963 22.3535C89.4963 22.6686 89.419 22.9603 89.2647 23.2283C89.113 23.4963 88.9137 23.7247 88.6653 23.9148C88.4191 24.1038 88.1341 24.2536 87.8132 24.3647C87.4877 24.4738 87.1662 24.5287 86.843 24.5287C85.7554 24.5287 85.0249 24.0323 84.6503 23.0399L83.937 21.2191Z" fill="white"/>
<path d="M97.3234 22.2357C97.3234 22.9927 97.0789 23.5632 96.5845 23.9505C96.0899 24.3361 95.5047 24.5289 94.8263 24.5289C94.1625 24.5289 93.5886 24.3361 93.1046 23.9505C92.6207 23.5632 92.3764 22.9927 92.3764 22.2357V12.4169H90.6444C89.8628 12.4169 89.2543 12.1896 88.8218 11.7308C88.3873 11.2734 88.1709 10.7292 88.1709 10.099C88.1709 9.46882 88.3873 8.925 88.8218 8.46623C89.2543 8.00984 89.8628 7.78011 90.6444 7.78011H99.006C99.7879 7.78011 100.4 8.00984 100.843 8.46623C101.284 8.925 101.505 9.46882 101.505 10.099C101.505 10.7292 101.284 11.2734 100.843 11.7308C100.4 12.1896 99.7879 12.4169 99.006 12.4169H97.3234V22.2357Z" fill="white"/>
<path d="M107.371 17.5987H109.77L108.673 14.5937L107.371 17.5987ZM111.121 21.2191H105.817L105.026 23.0399C104.789 23.5448 104.474 23.9188 104.082 24.1624C103.692 24.4084 103.286 24.5287 102.859 24.5287C102.519 24.5287 102.191 24.4786 101.878 24.3766C101.563 24.2736 101.279 24.1289 101.024 23.9378C100.769 23.7498 100.566 23.5197 100.412 23.2517C100.258 22.9837 100.183 22.6858 100.183 22.3535C100.183 21.9431 100.241 21.6362 100.361 21.4312L106.429 9.08068C106.633 8.67138 106.895 8.34068 107.219 8.08724C107.542 7.83584 108.044 7.70946 108.722 7.70946C109.369 7.70946 109.86 7.83584 110.189 8.08724C110.521 8.34068 110.78 8.67951 110.968 9.10575L116.501 21.4312C116.619 21.6514 116.679 21.9591 116.679 22.3535C116.679 22.6686 116.602 22.9603 116.45 23.2283C116.296 23.4963 116.095 23.7247 115.851 23.9148C115.603 24.1038 115.318 24.2536 114.994 24.3647C114.673 24.4738 114.35 24.5287 114.027 24.5287C112.938 24.5287 112.208 24.0323 111.833 23.0399L111.121 21.2191Z" fill="white"/>
<path d="M122.975 15.2799L127.616 8.86901C127.907 8.47428 128.241 8.18255 128.624 7.99314C129.006 7.80476 129.41 7.70921 129.836 7.70921C130.14 7.70921 130.429 7.76003 130.702 7.86405C130.974 7.96604 131.219 8.11546 131.442 8.31266C131.663 8.51019 131.837 8.75008 131.965 9.03469C132.091 9.31863 132.156 9.63373 132.156 9.97967V22.3536C132.156 23.0624 131.926 23.6028 131.468 23.9742C131.008 24.3441 130.464 24.5288 129.836 24.5288C129.172 24.5288 128.607 24.3441 128.138 23.9742C127.672 23.6028 127.438 23.0624 127.438 22.3536V16.9354L122.823 23.3473C122.534 23.7576 122.191 24.0555 121.791 24.2456C121.391 24.435 120.988 24.5288 120.578 24.5288C120.272 24.5288 119.979 24.4783 119.699 24.3767C119.421 24.2737 119.172 24.1236 118.96 23.926C118.748 23.7292 118.572 23.4893 118.438 23.2047C118.301 22.9207 118.234 22.5978 118.234 22.2356V9.88582C118.234 9.17564 118.468 8.63657 118.934 8.2659C119.401 7.89421 119.95 7.70921 120.578 7.70921C121.241 7.70921 121.808 7.89421 122.276 8.2659C122.742 8.63657 122.975 9.17564 122.975 9.88582V15.2799Z" fill="white"/>
<path d="M127.567 5.31203C127.567 6.67444 126.505 7.78003 125.195 7.78003C123.886 7.78003 122.824 6.67444 122.824 5.31203C122.824 3.9486 123.886 2.84403 125.195 2.84403C126.505 2.84403 127.567 3.9486 127.567 5.31203Z" fill="white"/>
<path d="M143.068 19.7243C142.781 19.9486 142.372 20.0563 141.845 20.0563H139.169V17.4301H141.744H142.152C142.575 17.4301 142.907 17.5379 143.145 17.751C143.382 17.9621 143.502 18.2758 143.502 18.6841C143.502 19.1598 143.359 19.5047 143.068 19.7243ZM146.563 15.266C146.136 14.7863 145.618 14.4068 145.008 14.1313C144.395 13.8552 143.698 13.7186 142.915 13.7186H142.05H139.169V12.3904H141.796C142.558 12.3904 143.14 12.1661 143.54 11.7179C143.939 11.2696 144.14 10.7288 144.14 10.0962C144.14 9.46637 143.939 8.92222 143.54 8.46515C143.14 8.00706 142.558 7.77869 141.796 7.77869H136.643C135.014 7.77869 134.195 8.55223 134.195 10.0962V22.1147C134.195 23.6604 134.995 24.434 136.592 24.434H141.642C142.712 24.434 143.641 24.3089 144.432 24.0528C145.224 23.8014 145.873 23.4453 146.382 22.9787C146.892 22.5142 147.273 21.9531 147.517 21.2992C147.764 20.6442 147.888 19.909 147.888 19.0876C147.888 18.3297 147.774 17.626 147.543 16.9707C147.314 16.3154 146.986 15.7485 146.563 15.266Z" fill="white"/>
<path d="M160.074 12.4158C160.859 12.4158 161.464 12.1887 161.899 11.7296C162.333 11.2743 162.548 10.7287 162.548 10.0962C162.548 9.46628 162.333 8.92213 161.899 8.46505C161.464 8.00696 160.859 7.77859 160.074 7.77859H151.661C150.029 7.77859 149.214 8.55247 149.214 10.0962V22.1146C149.214 23.6607 150.029 24.4342 151.661 24.4342H160.074C160.859 24.4342 161.464 24.2052 161.899 23.7477C162.333 23.2907 162.548 22.7472 162.548 22.1146C162.548 21.4827 162.333 20.9446 161.899 20.494C161.464 20.0454 160.859 19.8208 160.074 19.8208H154.135V18.2127H159.083C159.794 18.2127 160.351 18.0023 160.751 17.5849C161.15 17.1674 161.351 16.6741 161.351 16.1052C161.351 15.5397 161.15 15.0464 160.751 14.6293C160.351 14.2098 159.794 14.0011 159.083 14.0011H154.135V12.4158H160.074Z" fill="white"/>
<path d="M173.538 14.4745C173.3 14.6785 172.968 14.7815 172.544 14.7815H172.135H169.561V12.1803H172.238C172.765 12.1803 173.172 12.2854 173.461 12.4985C173.752 12.7116 173.895 13.0548 173.895 13.5275C173.895 13.9544 173.776 14.2705 173.538 14.4745ZM176.776 9.23392C176.268 8.76804 175.617 8.40956 174.826 8.15713C174.034 7.90505 173.105 7.77867 172.035 7.77867H166.985C165.388 7.77867 164.589 8.5522 164.589 10.0962V22.2092C164.589 23.7546 165.422 24.5288 167.088 24.5288C168.736 24.5288 169.561 23.7387 169.561 22.1648V18.4954H172.441H173.309C174.09 18.4954 174.789 18.3564 175.398 18.0813C176.013 17.8045 176.529 17.4301 176.953 16.9571C177.379 16.4861 177.707 15.9213 177.937 15.266C178.166 14.6107 178.281 13.9067 178.281 13.149C178.281 12.3277 178.157 11.5874 177.911 10.924C177.665 10.2643 177.286 9.69946 176.776 9.23392Z" fill="white"/>
<path d="M193.338 9.03349C193.209 8.7482 193.036 8.50865 192.815 8.31213C192.595 8.1146 192.346 7.9645 192.077 7.8615C191.805 7.75951 191.516 7.70936 191.209 7.70936C190.785 7.70936 190.38 7.80322 189.997 7.99127C189.616 8.18202 189.279 8.47375 188.991 8.86747L184.351 15.2797V9.88326C184.351 9.17546 184.117 8.63503 183.649 8.263C183.181 7.89402 182.616 7.70936 181.954 7.70936C181.325 7.70936 180.777 7.89402 180.307 8.263C179.841 8.63503 179.607 9.17546 179.607 9.88326V22.2317C179.607 22.595 179.676 22.9182 179.811 23.2025C179.948 23.4881 180.121 23.7273 180.333 23.9248C180.548 24.1224 180.794 24.2728 181.075 24.3738C181.355 24.4748 181.648 24.5286 181.954 24.5286C182.361 24.5286 182.765 24.4341 183.164 24.2454C183.565 24.0529 183.907 23.7544 184.198 23.3441L188.813 16.9349V22.353C188.813 23.0615 189.047 23.5996 189.514 23.9723C189.98 24.3443 190.545 24.5286 191.209 24.5286C191.837 24.5286 192.381 24.3443 192.841 23.9723C193.3 23.5996 193.531 23.0615 193.531 22.353V9.9778C193.531 9.63355 193.466 9.31743 193.338 9.03349Z" fill="white"/>
<defs>
<linearGradient id="paint0_linear_923_1971" x1="33.3689" y1="4.37244" x2="52.3835" y2="4.37244" gradientUnits="userSpaceOnUse">
<stop stop-color="white" stop-opacity="0"/>
<stop offset="0.441127" stop-color="white"/>
<stop offset="1" stop-color="white"/>
</linearGradient>
<linearGradient id="paint1_linear_923_1971" x1="33.3747" y1="4.37528" x2="52.3893" y2="4.37528" gradientUnits="userSpaceOnUse">
<stop stop-color="white"/>
<stop offset="0.441127" stop-color="#95C11F"/>
<stop offset="1" stop-color="#95C11F"/>
</linearGradient>
<linearGradient id="paint2_linear_923_1971" x1="17.8414" y1="17.6327" x2="51.184" y2="17.6327" gradientUnits="userSpaceOnUse">
<stop stop-color="white" stop-opacity="0"/>
<stop offset="0.441127" stop-color="white"/>
<stop offset="1" stop-color="white"/>
</linearGradient>
<linearGradient id="paint3_linear_923_1971" x1="17.8466" y1="17.6321" x2="51.1891" y2="17.6321" gradientUnits="userSpaceOnUse">
<stop stop-color="white"/>
<stop offset="0.441127" stop-color="#95C11F"/>
<stop offset="1" stop-color="#95C11F"/>
</linearGradient>
<linearGradient id="paint4_linear_923_1971" x1="29.6244" y1="30.8882" x2="52.1055" y2="30.8882" gradientUnits="userSpaceOnUse">
<stop stop-color="white" stop-opacity="0"/>
<stop offset="0.441127" stop-color="white"/>
<stop offset="1" stop-color="white"/>
</linearGradient>
<linearGradient id="paint5_linear_923_1971" x1="29.6251" y1="30.8884" x2="52.1062" y2="30.8884" gradientUnits="userSpaceOnUse">
<stop stop-color="white"/>
<stop offset="0.441127" stop-color="#95C11F"/>
<stop offset="1" stop-color="#95C11F"/>
</linearGradient>
</defs>
</svg>
