<svg width="14" height="14" viewBox="0 0 14 14" fill="none" xmlns="http://www.w3.org/2000/svg">
<path d="M6.99974 8.28332L2.50807 12.775C2.34002 12.943 2.12613 13.0271 1.86641 13.0271C1.60668 13.0271 1.3928 12.943 1.22474 12.775C1.05668 12.6069 0.972656 12.393 0.972656 12.1333C0.972656 11.8736 1.05668 11.6597 1.22474 11.4917L5.71641 6.99998L1.22474 2.50832C1.05668 2.34026 0.972656 2.12637 0.972656 1.86665C0.972656 1.60693 1.05668 1.39304 1.22474 1.22498C1.3928 1.05693 1.60668 0.9729 1.86641 0.9729C2.12613 0.9729 2.34002 1.05693 2.50807 1.22498L6.99974 5.71665L11.4914 1.22498C11.6595 1.05693 11.8734 0.9729 12.1331 0.9729C12.3928 0.9729 12.6067 1.05693 12.7747 1.22498C12.9428 1.39304 13.0268 1.60693 13.0268 1.86665C13.0268 2.12637 12.9428 2.34026 12.7747 2.50832L8.28307 6.99998L12.7747 11.4917C12.9428 11.6597 13.0268 11.8736 13.0268 12.1333C13.0268 12.393 12.9428 12.6069 12.7747 12.775C12.6067 12.943 12.3928 13.0271 12.1331 13.0271C11.8734 13.0271 11.6595 12.943 11.4914 12.775L6.99974 8.28332Z" fill="black"/>
</svg>
