<svg width="76" height="76" viewBox="0 0 76 76" fill="none" xmlns="http://www.w3.org/2000/svg">
<path d="M37.9999 40.1375L30.4791 32.6167C29.8985 32.0361 29.1728 31.7458 28.302 31.7458C27.4312 31.7458 26.6791 32.0361 26.0458 32.6167C25.4124 33.25 25.0958 34.0021 25.0958 34.8729C25.0958 35.7438 25.4124 36.4958 26.0458 37.1292L35.7833 46.8667C36.4166 47.5 37.1555 47.8167 37.9999 47.8167C38.8444 47.8167 39.5833 47.5 40.2166 46.8667L50.0333 37.05C50.6666 36.4167 50.9701 35.6778 50.9437 34.8333C50.9173 33.9889 50.5874 33.25 49.9541 32.6167C49.3208 32.0361 48.5819 31.7326 47.7374 31.7063C46.893 31.6799 46.1541 31.9833 45.5208 32.6167L37.9999 40.1375ZM37.9999 69.6667C33.6194 69.6667 29.5027 68.8354 25.6499 67.1729C21.7971 65.5104 18.4458 63.2542 15.5958 60.4042C12.7458 57.5542 10.4895 54.2028 8.827 50.35C7.1645 46.4972 6.33325 42.3806 6.33325 38C6.33325 33.6195 7.1645 29.5028 8.827 25.65C10.4895 21.7972 12.7458 18.4458 15.5958 15.5958C18.4458 12.7458 21.7971 10.4896 25.6499 8.82709C29.5027 7.16459 33.6194 6.33334 37.9999 6.33334C42.3805 6.33334 46.4971 7.16459 50.3499 8.82709C54.2027 10.4896 57.5541 12.7458 60.4041 15.5958C63.2541 18.4458 65.5103 21.7972 67.1728 25.65C68.8353 29.5028 69.6666 33.6195 69.6666 38C69.6666 42.3806 68.8353 46.4972 67.1728 50.35C65.5103 54.2028 63.2541 57.5542 60.4041 60.4042C57.5541 63.2542 54.2027 65.5104 50.3499 67.1729C46.4971 68.8354 42.3805 69.6667 37.9999 69.6667ZM37.9999 63.3333C45.0721 63.3333 51.0624 60.8792 55.9708 55.9708C60.8791 51.0625 63.3333 45.0722 63.3333 38C63.3333 30.9278 60.8791 24.9375 55.9708 20.0292C51.0624 15.1208 45.0721 12.6667 37.9999 12.6667C30.9277 12.6667 24.9374 15.1208 20.0291 20.0292C15.1208 24.9375 12.6666 30.9278 12.6666 38C12.6666 45.0722 15.1208 51.0625 20.0291 55.9708C24.9374 60.8792 30.9277 63.3333 37.9999 63.3333Z" fill="white"/>
</svg>
