<svg width="40" height="40" viewBox="0 0 40 40" fill="none" xmlns="http://www.w3.org/2000/svg">
<path d="M25 24.0343C26.4776 24.0343 27.9077 24.6012 29.0488 25.6349L29.2588 25.8341C30.2575 26.8215 30.9502 28.1317 31.2422 29.5792H37.6162C38.463 29.5792 39.1504 30.2656 39.1504 31.1124C39.1503 31.9592 38.463 32.6456 37.6162 32.6456H31.2422C30.9501 34.0931 30.2576 35.4034 29.2588 36.3907L29.0488 36.589C27.9076 37.6228 26.4777 38.1896 25 38.1896C23.6145 38.1896 22.2709 37.6917 21.168 36.7775L20.9512 36.589C19.8398 35.5821 19.0699 34.1923 18.7578 32.6456H2.38379C1.53702 32.6456 0.849714 31.9592 0.849609 31.1124C0.849609 30.2656 1.53695 29.5792 2.38379 29.5792H18.7578C19.0698 28.0323 19.8396 26.6418 20.9512 25.6349L21.168 25.4464C22.2708 24.5323 23.6147 24.0343 25 24.0343ZM24.999 27.1837C24.0624 27.1837 23.1595 27.5913 22.4844 28.3243C21.851 29.012 21.466 29.9348 21.4023 30.9171L21.3936 31.1144C21.3824 31.6524 21.4681 32.1876 21.6455 32.6876L21.7168 32.8732C21.891 33.3003 22.1302 33.6906 22.4248 34.0255C22.7615 34.4084 23.1636 34.7114 23.6055 34.9181C24.0472 35.1247 24.5209 35.2306 24.999 35.2306C25.4771 35.2306 25.9509 35.1247 26.3926 34.9181C26.8343 34.7115 27.2356 34.4082 27.5723 34.0255L27.6953 33.8781C27.9741 33.5277 28.1973 33.1252 28.3525 32.6876L28.4141 32.4982C28.5299 32.1169 28.5938 31.7182 28.6035 31.3156L28.6045 31.1144C28.5826 30.059 28.1892 29.0578 27.5137 28.3243C26.8386 27.5913 25.9357 27.1837 24.999 27.1837Z" fill="black" stroke="black" stroke-width="0.3"/>
<path d="M15 1.81207C16.4776 1.81207 17.9077 2.37895 19.0488 3.41266L19.2588 3.61188C20.2575 4.5993 20.9502 5.90948 21.2422 7.35699H37.6162C38.463 7.35699 39.1504 8.04336 39.1504 8.8902C39.1503 9.73694 38.463 10.4234 37.6162 10.4234H21.2422C20.9501 11.8709 20.2576 13.1812 19.2588 14.1685L19.0488 14.3668C17.9076 15.4006 16.4777 15.9673 15 15.9673C13.6145 15.9673 12.2709 15.4695 11.168 14.5552L10.9512 14.3668C9.83978 13.3599 9.06989 11.9701 8.75781 10.4234H2.38379C1.53702 10.4234 0.849715 9.73694 0.849609 8.8902C0.849609 8.04336 1.53695 7.35699 2.38379 7.35699H8.75781C9.06985 5.81009 9.83964 4.41961 10.9512 3.41266L11.168 3.22418C12.2708 2.31006 13.6147 1.81207 15 1.81207ZM14.999 4.96149C14.1209 4.96149 13.2722 5.31957 12.6133 5.96832L12.4844 6.10211C11.851 6.78979 11.466 7.71257 11.4023 8.69489L11.3936 8.89215C11.3824 9.43022 11.4681 9.96533 11.6455 10.4654L11.7168 10.6509C11.891 11.0781 12.1302 11.4684 12.4248 11.8033L12.5547 11.9429C12.8631 12.2602 13.2189 12.5151 13.6055 12.6959L13.7725 12.7681C14.1657 12.9269 14.5806 13.0084 14.999 13.0084C15.4771 13.0084 15.9509 12.9024 16.3926 12.6959C16.8343 12.4893 17.2356 12.186 17.5723 11.8033L17.6953 11.6558C17.9741 11.3054 18.1973 10.903 18.3525 10.4654L18.4141 10.2759C18.5299 9.89463 18.5938 9.49602 18.6035 9.09332L18.6045 8.89215C18.5839 7.90268 18.2366 6.96099 17.6367 6.24274L17.5137 6.10211C16.8386 5.36911 15.9357 4.96149 14.999 4.96149Z" fill="black" stroke="black" stroke-width="0.3"/>
</svg>
