<svg width="24" height="24" viewBox="0 0 24 24" fill="none" xmlns="http://www.w3.org/2000/svg">
<g clip-path="url(#clip0_1390_2782)">
<path d="M15.0004 14.3604C15.9024 14.3605 16.774 14.7073 17.4691 15.337C18.1344 15.9397 18.5966 16.767 18.7924 17.6876H22.5697C23.1109 17.6876 23.55 18.1259 23.5502 18.6671C23.5502 19.2083 23.1109 19.6475 22.5697 19.6475H18.7924C18.5965 20.5679 18.1343 21.3955 17.4691 21.9981C16.7741 22.6276 15.9023 22.9736 15.0004 22.9737C14.1544 22.9737 13.3345 22.6695 12.6625 22.1124L12.5306 21.9981C11.8654 21.3955 11.4032 20.5679 11.2074 19.6475H1.43005C0.888815 19.6475 0.449585 19.2083 0.449585 18.6671C0.449733 18.1259 0.888906 17.6876 1.43005 17.6876H11.2074C11.4032 16.767 11.8653 15.9397 12.5306 15.337L12.6625 15.2217C13.3344 14.6647 14.1545 14.3604 15.0004 14.3604ZM14.9994 16.3702C14.5232 16.3702 14.0612 16.5517 13.6888 16.8839L13.5345 17.0352C13.189 17.4104 12.9696 17.9064 12.9115 18.4395L12.8959 18.67C12.8893 18.9856 12.9404 19.2998 13.0443 19.5928L13.1312 19.8067C13.228 20.0158 13.3527 20.2072 13.5004 20.3751L13.6547 20.5342C13.8156 20.684 13.9959 20.8063 14.1888 20.8965L14.3851 20.9756C14.5841 21.0437 14.7911 21.0782 14.9994 21.0782C15.2772 21.0782 15.5528 21.0168 15.8099 20.8965L15.9984 20.796C16.1822 20.6849 16.3507 20.543 16.4984 20.3751L16.6381 20.2003C16.7697 20.0173 16.8765 19.8126 16.9545 19.5928L17.0228 19.3692C17.0613 19.2181 17.0862 19.063 17.097 18.9063L17.1019 18.67C17.0907 18.1279 16.9128 17.6112 16.6039 17.2032L16.4642 17.0352C16.0698 16.607 15.5436 16.3702 14.9994 16.3702Z" fill="black" stroke="black" stroke-width="0.3"/>
<path d="M9.00037 1.0271C9.90241 1.0272 10.774 1.37402 11.4691 2.00366L11.597 2.12378C12.1943 2.71406 12.6093 3.49365 12.7924 4.35425H22.5697C23.1109 4.35425 23.55 4.79263 23.5502 5.33374C23.5502 5.87498 23.1109 6.31421 22.5697 6.31421H12.7924C12.6093 7.17452 12.1941 7.95354 11.597 8.5437L11.4691 8.66479C10.7741 9.29431 9.90232 9.64028 9.00037 9.64038C8.15438 9.64038 7.33449 9.33619 6.66248 8.77905L6.53064 8.66479C5.8654 8.06214 5.40321 7.23459 5.2074 6.31421H1.43005C0.888815 6.31421 0.449585 5.87498 0.449585 5.33374C0.449733 4.79263 0.888906 4.35425 1.43005 4.35425H5.2074C5.40316 3.43371 5.8653 2.6064 6.53064 2.00366L6.66248 1.88843C7.33444 1.33144 8.15449 1.0271 9.00037 1.0271ZM8.99939 3.03687C8.52324 3.03687 8.0612 3.21842 7.68884 3.55054L7.53455 3.7019C7.18903 4.07709 6.96961 4.57308 6.9115 5.1062L6.89587 5.33667C6.88934 5.65232 6.94037 5.96644 7.04431 6.25952C7.14826 6.55241 7.30369 6.81809 7.50037 7.04175L7.65466 7.20093C7.81562 7.35071 7.99585 7.47296 8.18884 7.56323C8.44601 7.68347 8.72154 7.74487 8.99939 7.74487C9.27724 7.74487 9.55277 7.68347 9.80994 7.56323L9.99841 7.46265C10.1822 7.35162 10.3507 7.20968 10.4984 7.04175C10.6951 6.81809 10.8505 6.55241 10.9545 6.25952L11.0228 6.03589C11.0613 5.88482 11.0862 5.72971 11.097 5.573L11.1019 5.33667C11.0891 4.71728 10.8591 4.13064 10.4642 3.7019C10.0698 3.27366 9.54359 3.03687 8.99939 3.03687Z" fill="black" stroke="black" stroke-width="0.3"/>
</g>
<defs>
<clipPath id="clip0_1390_2782">
<rect width="24" height="24" fill="white"/>
</clipPath>
</defs>
</svg>
