<svg width="25" height="24" viewBox="0 0 25 24" fill="none" xmlns="http://www.w3.org/2000/svg">
<path d="M13.1699 22C12.8866 22 12.6121 21.9568 12.3465 21.8705C12.0809 21.7841 11.8595 21.6546 11.6824 21.4819C9.34492 19.3748 7.5918 17.4059 6.42305 15.5751C5.2543 13.7444 4.66992 12.0518 4.66992 10.4974C4.66992 8.07945 5.47565 6.05872 7.08711 4.43523C8.69857 2.81174 10.7262 2 13.1699 2C15.6137 2 17.6413 2.81174 19.2527 4.43523C20.8642 6.05872 21.6699 8.07945 21.6699 10.4974C21.6699 12.0518 21.0855 13.7444 19.9168 15.5751C18.748 17.4059 16.9949 19.3748 14.6574 21.4819C14.4803 21.6546 14.259 21.7841 13.9934 21.8705C13.7277 21.9568 13.4533 22 13.1699 22ZM13.1699 12.3627C13.8074 12.3627 14.3475 12.1468 14.7902 11.715C15.2329 11.2832 15.4543 10.7565 15.4543 10.1347C15.4543 9.51295 15.2329 8.98618 14.7902 8.5544C14.3475 8.12262 13.8074 7.90673 13.1699 7.90673C12.5324 7.90673 11.9923 8.12262 11.5496 8.5544C11.1069 8.98618 10.8855 9.51295 10.8855 10.1347C10.8855 10.7565 11.1069 11.2832 11.5496 11.715C11.9923 12.1468 12.5324 12.3627 13.1699 12.3627Z" fill="white"/>
</svg>
