<svg width="18" height="20" viewBox="0 0 18 20" fill="none" xmlns="http://www.w3.org/2000/svg">
<path d="M9.16992 20C8.88659 20 8.61211 19.9568 8.34648 19.8705C8.08086 19.7841 7.8595 19.6546 7.68242 19.4819C5.34492 17.3748 3.5918 15.4059 2.42305 13.5751C1.2543 11.7444 0.669922 10.0518 0.669922 8.49741C0.669922 6.07945 1.47565 4.05872 3.08711 2.43523C4.69857 0.811745 6.72617 0 9.16992 0C11.6137 0 13.6413 0.811745 15.2527 2.43523C16.8642 4.05872 17.6699 6.07945 17.6699 8.49741C17.6699 10.0518 17.0855 11.7444 15.9168 13.5751C14.748 15.4059 12.9949 17.3748 10.6574 19.4819C10.4803 19.6546 10.259 19.7841 9.99336 19.8705C9.72773 19.9568 9.45326 20 9.16992 20ZM9.16992 10.3627C9.80742 10.3627 10.3475 10.1468 10.7902 9.71502C11.2329 9.28325 11.4543 8.75648 11.4543 8.13471C11.4543 7.51295 11.2329 6.98618 10.7902 6.5544C10.3475 6.12262 9.80742 5.90673 9.16992 5.90673C8.53242 5.90673 7.99232 6.12262 7.54961 6.5544C7.1069 6.98618 6.88555 7.51295 6.88555 8.13471C6.88555 8.75648 7.1069 9.28325 7.54961 9.71502C7.99232 10.1468 8.53242 10.3627 9.16992 10.3627Z" fill="white"/>
</svg>
