<svg width="50" height="50" viewBox="0 0 50 50" fill="none" xmlns="http://www.w3.org/2000/svg">
<g clip-path="url(#clip0_1226_286)">
<mask id="mask0_1226_286" style="mask-type:luminance" maskUnits="userSpaceOnUse" x="0" y="0" width="50" height="50">
<path d="M0 0H49.9191V49.9191H0V0Z" fill="white"/>
</mask>
<g mask="url(#mask0_1226_286)">
<path d="M24.9596 49.9191C38.7444 49.9191 49.9191 38.7444 49.9191 24.9596C49.9191 11.1748 38.7444 0 24.9596 0C11.1748 0 0 11.1748 0 24.9596C0 38.7444 11.1748 49.9191 24.9596 49.9191Z" fill="#95C11F"/>
<path d="M33.553 14.4083L11.2841 23.5281C10.3361 23.9163 10.4503 25.2922 11.449 25.5193L17.1149 26.8094C17.4983 26.8963 17.899 26.8244 18.2265 26.6085L28.866 19.6164C29.1352 19.4402 29.4243 19.8086 29.1886 20.0283L21.5551 27.1295C21.3947 27.2787 21.2705 27.4625 21.1919 27.6669C21.1132 27.8713 21.0823 28.0909 21.1013 28.3091C21.1203 28.5273 21.1888 28.7383 21.3016 28.926C21.4144 29.1137 21.5685 29.2733 21.7523 29.3925L29.9788 34.7394C30.3093 34.954 30.7083 35.0366 31.0968 34.971C31.4853 34.9054 31.835 34.6963 32.0767 34.3851C32.2367 34.179 32.3429 33.9362 32.3857 33.6788L35.3433 15.8349C35.3815 15.6048 35.3575 15.3687 35.2739 15.1509C35.1903 14.9332 35.05 14.7417 34.8676 14.5963C34.6853 14.4509 34.4674 14.3568 34.2365 14.3238C34.0056 14.2907 33.7689 14.3199 33.553 14.4083Z" fill="white"/>
</g>
</g>
<defs>
<clipPath id="clip0_1226_286">
<rect width="49.9191" height="49.9191" fill="white"/>
</clipPath>
</defs>
</svg>
