<svg width="49" height="51" viewBox="0 0 49 51" fill="none" xmlns="http://www.w3.org/2000/svg">
<ellipse cx="24.767" cy="25.081" rx="24.2358" ry="24.9999" fill="#F6F6F6"/>
<path d="M37.7595 8.90527H10.3484C8.66567 8.90527 7.30273 10.2962 7.30273 12.0136V39.9881C7.30273 41.7054 8.66567 43.0963 10.3484 43.0963H37.7595C39.4422 43.0963 40.8052 41.7054 40.8052 39.9881V12.0136C40.8052 10.2962 39.4422 8.90527 37.7595 8.90527ZM33.7407 32.1661L30.8961 32.2065C30.8961 32.2065 30.2824 32.3293 29.4798 31.7636C28.4154 31.0176 27.4118 29.0764 26.6291 29.3282C25.8357 29.5862 25.86 31.3331 25.86 31.3331C25.86 31.3331 25.8661 31.6408 25.6849 31.8413C25.4885 32.0573 25.1032 32.0355 25.1032 32.0355H23.8286C23.8286 32.0355 21.0174 32.2733 18.5398 29.6375C15.8413 26.7639 13.4565 21.0928 13.4565 21.0928C13.4565 21.0928 13.3164 20.7354 13.4657 20.552C13.6347 20.35 14.09 20.3437 14.09 20.3437L17.1357 20.3282C17.1357 20.3282 17.422 20.3795 17.6291 20.5349C17.7981 20.6623 17.8941 20.9017 17.8941 20.9017C17.8941 20.9017 18.3859 22.1745 19.0392 23.3277C20.3123 25.575 20.9032 26.0676 21.3357 25.8267C21.9661 25.4755 21.7773 22.6501 21.7773 22.6501C21.7773 22.6501 21.7895 21.6243 21.4606 21.1674C21.2047 20.8115 20.7235 20.7059 20.5134 20.6794C20.3413 20.6561 20.6215 20.2489 20.987 20.0655C21.5352 19.792 22.5037 19.7765 23.6474 19.7874C24.5382 19.7967 24.7956 19.8526 25.1428 19.9397C26.1935 20.1992 25.8372 21.2001 25.8372 23.6012C25.8372 24.3705 25.7017 25.4522 26.2438 25.8081C26.4783 25.962 27.0494 25.8314 28.4732 23.3541C29.1509 22.1792 29.658 20.7991 29.658 20.7991C29.658 20.7991 29.7692 20.5535 29.9412 20.4479C30.1179 20.3391 30.3555 20.3733 30.3555 20.3733L33.561 20.3531C33.561 20.3531 34.5235 20.2349 34.6803 20.681C34.8448 21.1472 34.3209 22.2367 33.0113 24.0193C30.861 26.9473 30.6219 26.6753 32.4082 28.3693C34.1138 29.9872 34.4656 30.7736 34.525 30.873C35.2301 32.0713 33.7407 32.1661 33.7407 32.1661Z" fill="#F6F6F6"/>
<path d="M33.7407 32.1661L30.8961 32.2065C30.8961 32.2065 30.2824 32.3293 29.4798 31.7636C28.4154 31.0176 27.4118 29.0764 26.6291 29.3282C25.8357 29.5862 25.86 31.3331 25.86 31.3331C25.86 31.3331 25.8661 31.6408 25.6849 31.8413C25.4885 32.0573 25.1032 32.0355 25.1032 32.0355H23.8286C23.8286 32.0355 21.0174 32.2733 18.5398 29.6375C15.8413 26.7639 13.4565 21.0928 13.4565 21.0928C13.4565 21.0928 13.3164 20.7354 13.4657 20.552C13.6347 20.35 14.09 20.3437 14.09 20.3437L17.1357 20.3282C17.1357 20.3282 17.422 20.3795 17.6291 20.5349C17.7981 20.6623 17.8941 20.9017 17.8941 20.9017C17.8941 20.9017 18.3859 22.1745 19.0392 23.3277C20.3123 25.575 20.9032 26.0676 21.3357 25.8267C21.9661 25.4755 21.7773 22.6501 21.7773 22.6501C21.7773 22.6501 21.7895 21.6243 21.4606 21.1674C21.2047 20.8115 20.7235 20.7059 20.5134 20.6794C20.3413 20.6561 20.6215 20.2489 20.987 20.0655C21.5352 19.792 22.5037 19.7765 23.6474 19.7874C24.5382 19.7967 24.7956 19.8526 25.1428 19.9397C26.1935 20.1992 25.8372 21.2001 25.8372 23.6012C25.8372 24.3705 25.7017 25.4522 26.2438 25.8081C26.4783 25.962 27.0494 25.8314 28.4732 23.3541C29.1509 22.1792 29.658 20.7991 29.658 20.7991C29.658 20.7991 29.7692 20.5535 29.9412 20.4479C30.1179 20.3391 30.3555 20.3733 30.3555 20.3733L33.561 20.3531C33.561 20.3531 34.5235 20.2349 34.6803 20.681C34.8448 21.1472 34.3209 22.2367 33.0113 24.0193C30.861 26.9473 30.6219 26.6753 32.4082 28.3693C34.1138 29.9872 34.4656 30.7736 34.525 30.873C35.2301 32.0713 33.7407 32.1661 33.7407 32.1661Z" fill="#918E8E"/>
</svg>
