<svg width="50" height="51" viewBox="0 0 50 51" fill="none" xmlns="http://www.w3.org/2000/svg">
<ellipse cx="25.0014" cy="25.0404" rx="24.2358" ry="24.9999" fill="#95C11F"/>
<path d="M25.6557 12.2026C19.1546 12.2026 13.8653 17.6587 13.8653 24.3648C13.8653 26.4588 14.3897 28.5179 15.3842 30.3348L13.8843 35.8553C13.8351 36.0367 13.8827 36.2313 14.0099 36.3661C14.1078 36.4703 14.2411 36.5269 14.3779 36.5269C14.4189 36.5269 14.4605 36.5216 14.501 36.5115L20.0865 35.0843C21.792 36.0288 23.7128 36.5269 25.6557 36.5269C32.1568 36.5269 37.446 31.0708 37.446 24.3648C37.446 17.6587 32.1568 12.2026 25.6557 12.2026ZM31.5867 28.6564C31.3345 29.3766 30.1247 30.0339 29.5434 30.1222C29.0215 30.201 28.3613 30.2348 27.6364 30.0001C27.1971 29.8573 26.6332 29.668 25.9109 29.3502C22.8747 28.0145 20.8918 24.9004 20.7401 24.6947C20.5889 24.489 19.5042 23.0232 19.5042 21.5061C19.5042 19.989 20.2859 19.2429 20.5638 18.9341C20.8416 18.6253 21.1692 18.5481 21.3711 18.5481C21.5731 18.5481 21.7746 18.5507 21.9514 18.5592C22.1375 18.5687 22.3872 18.4868 22.6327 19.0885C22.8849 19.7061 23.4903 21.2232 23.5652 21.3782C23.641 21.5326 23.6913 21.7129 23.5908 21.9186C23.4903 22.1243 23.4401 22.2528 23.2884 22.4331C23.1366 22.6134 22.9705 22.835 22.8342 22.9735C22.6824 23.1274 22.5251 23.294 22.7014 23.6028C22.8778 23.9116 23.4852 24.921 24.3854 25.7385C25.5413 26.7887 26.5169 27.1145 26.8193 27.2689C27.1218 27.4233 27.2986 27.3974 27.475 27.1917C27.6513 26.9854 28.2316 26.2911 28.4331 25.9828C28.6345 25.6746 28.8365 25.7253 29.1143 25.8284C29.3922 25.931 30.8803 26.6766 31.1828 26.831C31.4852 26.9854 31.6872 27.0626 31.7631 27.1911C31.8389 27.3191 31.8389 27.9367 31.5867 28.6564Z" fill="white"/>
</svg>
