<svg width="175" height="30" viewBox="0 0 175 30" fill="none" xmlns="http://www.w3.org/2000/svg">
<mask id="mask0_1065_1555" style="mask-type:luminance" maskUnits="userSpaceOnUse" x="21" y="0" width="28" height="7">
<path d="M24.6124 1.7643e-05C22.7726 1.7643e-05 21.2822 1.51976 21.2822 3.39488C21.2822 5.26941 22.7726 6.79004 24.6124 6.79004H45.2361C47.0756 6.79004 48.5663 5.26941 48.5663 3.39488C48.5663 1.51976 47.0756 1.7643e-05 45.2361 1.7643e-05H24.6124Z" fill="white"/>
</mask>
<g mask="url(#mask0_1065_1555)">
<mask id="mask1_1065_1555" style="mask-type:luminance" maskUnits="userSpaceOnUse" x="-9572" y="-9568" width="19081" height="19442">
<path d="M-9572 -9567.5H9508.61V9873.45H-9572V-9567.5Z" fill="url(#paint0_linear_1065_1555)"/>
</mask>
<g mask="url(#mask1_1065_1555)">
<path d="M24.6134 -0.00193548C22.7736 -0.00193548 21.2832 1.5178 21.2832 3.39293C21.2832 5.26746 22.7736 6.78809 24.6134 6.78809H45.2371C47.0766 6.78809 48.5673 5.26746 48.5673 3.39293C48.5673 1.5178 47.0766 -0.00193548 45.2371 -0.00193548H24.6134Z" fill="url(#paint1_linear_1065_1555)"/>
</g>
</g>
<mask id="mask2_1065_1555" style="mask-type:luminance" maskUnits="userSpaceOnUse" x="0" y="11" width="49" height="8">
<path d="M4.05411 11.606C2.21404 11.606 0.723633 13.1254 0.723633 14.9999C0.723633 16.8742 2.21404 18.396 4.05411 18.396H45.2366C47.0761 18.396 48.5668 16.8742 48.5668 14.9999C48.5668 13.1254 47.0761 11.606 45.2366 11.606H4.05411Z" fill="white"/>
</mask>
<g mask="url(#mask2_1065_1555)">
<mask id="mask3_1065_1555" style="mask-type:luminance" maskUnits="userSpaceOnUse" x="-9573" y="-9568" width="19082" height="19442">
<path d="M-9572 -9567.49H9508.61V9873.46H-9572V-9567.49Z" fill="url(#paint2_linear_1065_1555)"/>
</mask>
<g mask="url(#mask3_1065_1555)">
<path d="M4.04728 11.6055C2.2072 11.6055 0.716797 13.1249 0.716797 14.9995C0.716797 16.8737 2.2072 18.3955 4.04728 18.3955H45.2297C47.0692 18.3955 48.5599 16.8737 48.5599 14.9995C48.5599 13.1249 47.0692 11.6055 45.2297 11.6055H4.04728Z" fill="url(#paint3_linear_1065_1555)"/>
</g>
</g>
<mask id="mask4_1065_1555" style="mask-type:luminance" maskUnits="userSpaceOnUse" x="16" y="23" width="33" height="7">
<path d="M19.6428 23.2109C17.803 23.2109 16.3105 24.7321 16.3105 26.6063C16.3105 28.4812 17.803 30 19.6428 30H45.2385C47.0779 30 48.5686 28.4812 48.5686 26.6063C48.5686 24.7321 47.0779 23.2109 45.2385 23.2109H19.6428Z" fill="white"/>
</mask>
<g mask="url(#mask4_1065_1555)">
<mask id="mask5_1065_1555" style="mask-type:luminance" maskUnits="userSpaceOnUse" x="-9572" y="-9568" width="19081" height="19442">
<path d="M-9572 -9567.49H9508.61V9873.46H-9572V-9567.49Z" fill="url(#paint4_linear_1065_1555)"/>
</mask>
<g mask="url(#mask5_1065_1555)">
<path d="M19.6418 23.2099C17.802 23.2099 16.3096 24.7311 16.3096 26.6053C16.3096 28.4802 17.802 29.999 19.6418 29.999H45.2375C47.077 29.999 48.5677 28.4802 48.5677 26.6053C48.5677 24.7311 47.077 23.2099 45.2375 23.2099H19.6418Z" fill="url(#paint5_linear_1065_1555)"/>
</g>
</g>
<path d="M56.9859 19.0308C56.9859 19.6936 56.7623 20.1931 56.3191 20.5322C55.8757 20.8698 55.3554 21.0386 54.7597 21.0386C54.1489 21.0386 53.6251 20.8698 53.1875 20.5322C52.7517 20.1931 52.5342 19.6936 52.5342 19.0308V8.30043C52.5342 7.66649 52.7517 7.17583 53.1875 6.83023C53.6251 6.48552 54.1489 6.31258 54.7597 6.31258C55.3554 6.31258 55.8757 6.48552 56.3191 6.83023C56.7623 7.17583 56.9859 7.66649 56.9859 8.30043V11.7401L61.0923 7.25859C62.2819 5.87383 63.6599 6.50214 64.0646 6.88214C64.4711 7.26215 64.6734 7.74184 64.6734 8.32238C64.6734 8.55703 64.635 8.78486 64.5578 9.00586C64.4827 9.22657 64.352 9.41998 64.1689 9.58492L60.4282 13.3963L64.1919 17.7461C64.5427 18.1471 64.7197 18.5675 64.7197 19.0095C64.7197 19.6304 64.5043 20.1249 64.0763 20.491C63.6483 20.8558 63.0893 21.0386 62.4013 21.0386C62.0641 21.0386 61.7482 20.9769 61.4492 20.8535C61.1511 20.7283 60.8943 20.5286 60.6803 20.2525L56.9859 15.5918V19.0308Z" fill="#764C8C"/>
<path d="M72.1543 14.9712H74.3109L73.3242 12.3402L72.1543 14.9712ZM75.5267 18.1409H70.7533L70.042 19.7351C69.8283 20.1771 69.545 20.5046 69.1942 20.7179C68.8413 20.9333 68.4736 21.0386 68.0919 21.0386C67.7856 21.0386 67.4901 20.9947 67.2071 20.9054C66.9258 20.8152 66.6693 20.6885 66.4399 20.5212C66.2108 20.3566 66.0256 20.1552 65.8888 19.9205C65.7502 19.6859 65.6826 19.4251 65.6826 19.1341C65.6826 18.7748 65.7368 18.5061 65.8425 18.3266L71.3045 7.51342C71.4873 7.15506 71.7243 6.86553 72.0157 6.64364C72.3066 6.42352 72.7576 6.31287 73.3705 6.31287C73.9504 6.31287 74.3898 6.42352 74.6885 6.64364C74.9872 6.86553 75.2204 7.16218 75.3881 7.53537L80.368 18.3266C80.474 18.5194 80.5302 18.7888 80.5302 19.1341C80.5302 19.41 80.4606 19.6654 80.3217 19.9C80.1851 20.1347 80.0058 20.3346 79.7822 20.501C79.5606 20.6666 79.3041 20.7977 79.0153 20.895C78.7224 20.9905 78.433 21.0386 78.1421 21.0386C77.1633 21.0386 76.5059 20.604 76.1687 19.7351L75.5267 18.1409Z" fill="#764C8C"/>
<path d="M87.5751 19.0308C87.5751 19.6936 87.355 20.1931 86.9101 20.5322C86.465 20.8698 85.9383 21.0386 85.3277 21.0386C84.7303 21.0386 84.2138 20.8698 83.7782 20.5322C83.3427 20.1931 83.1229 19.6936 83.1229 19.0308V10.4342H81.564C80.8606 10.4342 80.313 10.2352 79.9237 9.83352C79.5327 9.43304 79.3379 8.95662 79.3379 8.40485C79.3379 7.85308 79.5327 7.37696 79.9237 6.97529C80.313 6.57571 80.8606 6.37458 81.564 6.37458H89.0894C89.7931 6.37458 90.3443 6.57571 90.7429 6.97529C91.1397 7.37696 91.3383 7.85308 91.3383 8.40485C91.3383 8.95662 91.1397 9.43304 90.7429 9.83352C90.3443 10.2352 89.7931 10.4342 89.0894 10.4342H87.5751V19.0308Z" fill="#764C8C"/>
<path d="M96.6175 14.9712H98.7767L97.79 12.3402L96.6175 14.9712ZM99.9925 18.1409H95.2191L94.5078 19.7351C94.2941 20.1771 94.0103 20.5046 93.6577 20.7179C93.3068 20.9333 92.9412 21.0386 92.5574 21.0386C92.2508 21.0386 91.9556 20.9947 91.6747 20.9054C91.3911 20.8152 91.1351 20.6885 90.9054 20.5212C90.6763 20.3566 90.4935 20.1552 90.3546 19.9205C90.216 19.6859 90.1484 19.4251 90.1484 19.1341C90.1484 18.7748 90.2006 18.5061 90.3086 18.3266L95.7703 7.51342C95.9534 7.15506 96.1898 6.86553 96.4816 6.64364C96.7721 6.42352 97.2237 6.31287 97.834 6.31287C98.4163 6.31287 98.8579 6.42352 99.1543 6.64364C99.4533 6.86553 99.686 7.16218 99.8554 7.53537L104.835 18.3266C104.942 18.5194 104.995 18.7888 104.995 19.1341C104.995 19.41 104.926 19.6654 104.789 19.9C104.65 20.1347 104.47 20.3346 104.25 20.501C104.026 20.6666 103.77 20.7977 103.479 20.895C103.189 20.9905 102.899 21.0386 102.608 21.0386C101.629 21.0386 100.972 20.604 100.634 19.7351L99.9925 18.1409Z" fill="#764C8C"/>
<path d="M110.662 12.9409L114.839 7.32801C115.101 6.98241 115.401 6.727 115.746 6.56117C116.09 6.39623 116.454 6.31258 116.837 6.31258C117.11 6.31258 117.371 6.35708 117.616 6.44815C117.861 6.53744 118.082 6.66826 118.283 6.84091C118.481 7.01386 118.638 7.22389 118.753 7.47307C118.867 7.72167 118.925 7.99755 118.925 8.30043V19.1341C118.925 19.7547 118.718 20.2278 118.306 20.553C117.891 20.8769 117.402 21.0386 116.837 21.0386C116.239 21.0386 115.731 20.8769 115.309 20.553C114.889 20.2278 114.678 19.7547 114.678 19.1341V14.3904L110.525 20.0042C110.265 20.3634 109.956 20.6242 109.596 20.7906C109.237 20.9564 108.873 21.0386 108.505 21.0386C108.23 21.0386 107.966 20.9944 107.714 20.9054C107.463 20.8152 107.239 20.6838 107.049 20.5108C106.858 20.3385 106.7 20.1285 106.579 19.8793C106.455 19.6307 106.396 19.348 106.396 19.0308V8.21826C106.396 7.59648 106.606 7.12451 107.026 6.79997C107.446 6.47455 107.939 6.31258 108.505 6.31258C109.101 6.31258 109.612 6.47455 110.033 6.79997C110.452 7.12451 110.662 7.59648 110.662 8.21826V12.9409Z" fill="#764C8C"/>
<path d="M114.795 4.21323C114.795 5.40605 113.839 6.37402 112.66 6.37402C111.482 6.37402 110.526 5.40605 110.526 4.21323C110.526 3.01951 111.482 2.05243 112.66 2.05243C113.839 2.05243 114.795 3.01951 114.795 4.21323Z" fill="#764C8C"/>
<path d="M128.746 16.8321C128.488 17.0285 128.12 17.1228 127.646 17.1228H125.237V14.8235H127.554H127.921C128.302 14.8235 128.601 14.9179 128.815 15.1044C129.029 15.2893 129.137 15.564 129.137 15.9214C129.137 16.3379 129.008 16.6399 128.746 16.8321ZM131.892 12.9288C131.507 12.5088 131.041 12.1765 130.492 11.9353C129.941 11.6936 129.313 11.574 128.609 11.574H127.83H125.237V10.4111H127.601C128.287 10.4111 128.811 10.2148 129.171 9.8223C129.53 9.42983 129.711 8.95638 129.711 8.40253C129.711 7.85106 129.53 7.37464 129.171 6.97446C128.811 6.57339 128.287 6.37345 127.601 6.37345H122.964C121.497 6.37345 120.761 7.0507 120.761 8.40253V18.925C120.761 20.2783 121.48 20.9556 122.918 20.9556H127.462C128.426 20.9556 129.262 20.8461 129.974 20.6218C130.687 20.4017 131.271 20.0899 131.729 19.6815C132.188 19.2747 132.53 18.7835 132.75 18.211C132.972 17.6375 133.084 16.9938 133.084 16.2747C133.084 15.6111 132.981 14.995 132.774 14.4213C132.567 13.8475 132.272 13.3512 131.892 12.9288Z" fill="#764C8C"/>
<path d="M144.05 10.4331C144.756 10.4331 145.3 10.2343 145.692 9.83238C146.083 9.43369 146.276 8.95608 146.276 8.40224C146.276 7.85076 146.083 7.37434 145.692 6.97416C145.3 6.57309 144.756 6.37315 144.05 6.37315H136.478C135.009 6.37315 134.275 7.0507 134.275 8.40224V18.9247C134.275 20.2783 135.009 20.9556 136.478 20.9556H144.05C144.756 20.9556 145.3 20.755 145.692 20.3546C146.083 19.9544 146.276 19.4785 146.276 18.9247C146.276 18.3714 146.083 17.9004 145.692 17.5058C145.3 17.1131 144.756 16.9164 144.05 16.9164H138.704V15.5085H143.158C143.797 15.5085 144.299 15.3243 144.659 14.9588C145.018 14.5933 145.199 14.1614 145.199 13.6633C145.199 13.1682 145.018 12.7363 144.659 12.3711C144.299 12.0039 143.797 11.8211 143.158 11.8211H138.704V10.4331H144.05Z" fill="#764C8C"/>
<path d="M156.167 12.2358C155.953 12.4144 155.655 12.5046 155.273 12.5046H154.905H152.589V10.2272H154.997C155.472 10.2272 155.838 10.3191 156.098 10.5057C156.36 10.6923 156.489 10.9928 156.489 11.4066C156.489 11.7804 156.381 12.0572 156.167 12.2358ZM159.082 7.6475C158.624 7.23961 158.039 6.92575 157.327 6.70475C156.614 6.48404 155.778 6.37339 154.815 6.37339H150.27C148.833 6.37339 148.113 7.05064 148.113 8.40248V19.0077C148.113 20.3607 148.863 21.0386 150.362 21.0386C151.846 21.0386 152.589 20.3468 152.589 18.9688V15.7561H155.18H155.961C156.664 15.7561 157.293 15.6345 157.842 15.3936C158.395 15.1513 158.86 14.8235 159.241 14.4093C159.625 13.997 159.92 13.5025 160.126 12.9288C160.333 12.355 160.436 11.7386 160.436 11.0753C160.436 10.3562 160.324 9.70803 160.103 9.12719C159.882 8.54961 159.54 8.0551 159.082 7.6475Z" fill="#764C8C"/>
<path d="M173.988 7.47218C173.872 7.2224 173.716 7.01267 173.518 6.84061C173.319 6.66767 173.096 6.53625 172.853 6.44607C172.609 6.35678 172.348 6.31287 172.072 6.31287C171.691 6.31287 171.326 6.39505 170.981 6.55969C170.639 6.7267 170.336 6.98212 170.076 7.32682L165.9 12.9409V8.21618C165.9 7.59648 165.689 7.12332 165.268 6.7976C164.847 6.47455 164.339 6.31287 163.743 6.31287C163.177 6.31287 162.683 6.47455 162.261 6.7976C161.841 7.12332 161.631 7.59648 161.631 8.21618V19.0276C161.631 19.3456 161.693 19.6286 161.814 19.8775C161.937 20.1276 162.093 20.337 162.284 20.5099C162.477 20.6829 162.699 20.8146 162.951 20.903C163.204 20.9914 163.467 21.0386 163.743 21.0386C164.109 21.0386 164.473 20.9558 164.832 20.7906C165.192 20.6221 165.501 20.3607 165.763 20.0015L169.916 14.3901V19.1338C169.916 19.7541 170.126 20.2252 170.547 20.5515C170.966 20.8772 171.475 21.0386 172.072 21.0386C172.638 21.0386 173.127 20.8772 173.541 20.5515C173.954 20.2252 174.162 19.7541 174.162 19.1338V8.29895C174.162 7.99755 174.103 7.72078 173.988 7.47218Z" fill="#764C8C"/>
<defs>
<linearGradient id="paint0_linear_1065_1555" x1="30.0127" y1="3.39131" x2="47.1259" y2="3.39131" gradientUnits="userSpaceOnUse">
<stop stop-color="white" stop-opacity="0"/>
<stop offset="0.441127" stop-color="white"/>
<stop offset="1" stop-color="white"/>
</linearGradient>
<linearGradient id="paint1_linear_1065_1555" x1="30.021" y1="3.3931" x2="47.1341" y2="3.3931" gradientUnits="userSpaceOnUse">
<stop stop-color="white"/>
<stop offset="0.441127" stop-color="#95C11F"/>
<stop offset="1" stop-color="#95C11F"/>
</linearGradient>
<linearGradient id="paint2_linear_1065_1555" x1="16.0303" y1="15.0004" x2="46.0385" y2="15.0004" gradientUnits="userSpaceOnUse">
<stop stop-color="white" stop-opacity="0"/>
<stop offset="0.441127" stop-color="white"/>
<stop offset="1" stop-color="white"/>
</linearGradient>
<linearGradient id="paint3_linear_1065_1555" x1="16.0387" y1="15.0005" x2="46.0469" y2="15.0005" gradientUnits="userSpaceOnUse">
<stop stop-color="white"/>
<stop offset="0.441127" stop-color="#95C11F"/>
<stop offset="1" stop-color="#95C11F"/>
</linearGradient>
<linearGradient id="paint4_linear_1065_1555" x1="26.6322" y1="26.6042" x2="46.8652" y2="26.6042" gradientUnits="userSpaceOnUse">
<stop stop-color="white" stop-opacity="0"/>
<stop offset="0.441127" stop-color="white"/>
<stop offset="1" stop-color="white"/>
</linearGradient>
<linearGradient id="paint5_linear_1065_1555" x1="26.6403" y1="26.6044" x2="46.8733" y2="26.6044" gradientUnits="userSpaceOnUse">
<stop stop-color="white"/>
<stop offset="0.441127" stop-color="#95C11F"/>
<stop offset="1" stop-color="#95C11F"/>
</linearGradient>
</defs>
</svg>
