<svg width="30" height="36" viewBox="0 0 30 36" fill="none" xmlns="http://www.w3.org/2000/svg">
<path d="M15 36C14.5 36 14.0156 35.9223 13.5469 35.7668C13.0781 35.6114 12.6875 35.3782 12.375 35.0674C8.25 31.2746 5.15625 27.7306 3.09375 24.4352C1.03125 21.1399 0 18.0933 0 15.2953C0 10.943 1.42188 7.3057 4.26563 4.38342C7.10938 1.46114 10.6875 0 15 0C19.3125 0 22.8906 1.46114 25.7344 4.38342C28.5781 7.3057 30 10.943 30 15.2953C30 18.0933 28.9688 21.1399 26.9062 24.4352C24.8438 27.7306 21.75 31.2746 17.625 35.0674C17.3125 35.3782 16.9219 35.6114 16.4531 35.7668C15.9844 35.9223 15.5 36 15 36ZM15 18.6528C16.125 18.6528 17.0781 18.2642 17.8594 17.487C18.6406 16.7098 19.0312 15.7617 19.0312 14.6425C19.0312 13.5233 18.6406 12.5751 17.8594 11.7979C17.0781 11.0207 16.125 10.6321 15 10.6321C13.875 10.6321 12.9219 11.0207 12.1406 11.7979C11.3594 12.5751 10.9687 13.5233 10.9687 14.6425C10.9687 15.7617 11.3594 16.7098 12.1406 17.487C12.9219 18.2642 13.875 18.6528 15 18.6528Z" fill="#95C11F"/>
</svg>
