<svg width="24" height="24" viewBox="0 0 24 24" fill="none" xmlns="http://www.w3.org/2000/svg">
<rect width="24" height="24" rx="4" fill="#EDE3F7"/>
<g clip-path="url(#clip0_1091_1414)">
<path fill-rule="evenodd" clip-rule="evenodd" d="M6.49329 12.9589C6.79315 13.2662 9.95173 16.276 9.95173 16.276C10.1125 16.4397 10.3223 16.5215 10.5321 16.5215C10.7419 16.5215 10.9525 16.4397 11.1125 16.276C11.1125 16.276 16.9921 9.54584 17.292 9.23854C17.5918 8.93049 17.6127 8.3769 17.292 8.04802C16.9713 7.71914 16.5248 7.6931 16.1312 8.04802L10.5314 14.5289L7.65255 11.7684C7.25968 11.4135 6.81176 11.4402 6.49181 11.7684C6.17185 12.0973 6.19269 12.6509 6.49329 12.9589Z" fill="#764C8C"/>
</g>
<defs>
<clipPath id="clip0_1091_1414">
<rect width="12" height="10" fill="white" transform="translate(6 7)"/>
</clipPath>
</defs>
</svg>
